<svg xmlns="http://www.w3.org/2000/svg" viewBox="0 0 14.29 7.66"><defs><style>.cls-1{fill:#fff;}</style></defs><title>eye_1</title><g id="Layer_2" data-name="Layer 2"><g id="Layer_1-2" data-name="Layer 1"><path d="M0,3.72c.4-.4.79-.81,1.21-1.19A9.27,9.27,0,0,1,6.12.07a7.91,7.91,0,0,1,6,1.8c.73.55,1.36,1.23,2.14,1.94-.75.7-1.38,1.37-2.1,1.92A7.85,7.85,0,0,1,6,7.56,9.61,9.61,0,0,1,.58,4.51C.39,4.31.19,4.13,0,3.94Zm4.42-.55c0,1.89.63,2.89,2,3.26A2.68,2.68,0,0,0,8.94,1.9c-1-1-2.25-1-3.69-.08l-.43-.39A9.34,9.34,0,0,0,1.3,3.83a9.14,9.14,0,0,0,3.4,2.33,3.34,3.34,0,0,1-.8-3.09Zm5-1.67a3.48,3.48,0,0,1,0,4.67,9.27,9.27,0,0,0,3.39-2.35A9.37,9.37,0,0,0,9.46,1.5Z"/><path class="cls-1" d="M4.42,3.17l-.52-.1a3.34,3.34,0,0,0,.8,3.09A9.14,9.14,0,0,1,1.3,3.83a9.34,9.34,0,0,1,3.51-2.4l.43.39c1.44-.9,2.7-.87,3.69.08A2.68,2.68,0,0,1,6.43,6.42C5.05,6.06,4.42,5.06,4.42,3.17Zm1,.16A1.73,1.73,0,0,0,6.46,5.49,1.78,1.78,0,0,0,8.14,2.4a1.7,1.7,0,0,0-2.25.17l.79.93Z"/><path class="cls-1" d="M9.46,1.5a9.37,9.37,0,0,1,3.4,2.32A9.27,9.27,0,0,1,9.47,6.17,3.48,3.48,0,0,0,9.46,1.5Z"/><path d="M5.4,3.33l1.27.18-.79-.93A1.7,1.7,0,0,1,8.14,2.4,1.78,1.78,0,0,1,6.46,5.49,1.73,1.73,0,0,1,5.4,3.33Z"/></g></g></svg>