<svg xmlns="http://www.w3.org/2000/svg" viewBox="0 0 26.26 31.85"><defs><style>.cls-1{fill:#2c2c2c;}.cls-2{fill:#f6f2ef;}.cls-3{fill:#e2e1e0;}.cls-4{fill:#6460aa;}.cls-5{fill:#cc004c;}.cls-6{fill:#0089d0;}.cls-7{fill:#f37021;}.cls-8{fill:#0db14b;}</style></defs><title>head-graphic</title><g id="Layer_2" data-name="Layer 2"><g id="Layer_1-2" data-name="Layer 1"><path class="cls-1" d="M22.84,4C27.05,8.21,27.43,14.53,25,20.07a8.33,8.33,0,0,0-.75,4.68c.22,1.72.3,3.51.44,5.23.08.78-.3,1.09-1,1.17q-4.62.35-9.25.94c-.68.08-1.05-.08-1.2-.7-.08-.39-.08-.86-.16-1.25A1.12,1.12,0,0,0,11.79,29c-1.13.08-2.25.23-3.39.39a3.77,3.77,0,0,1-4.14-3.12,23.51,23.51,0,0,1-.37-3.2c-.07-.47-.23-.7-.75-.62s-1.2.08-1.8.16c-.91.08-1.21-.31-1.05-1.17a22.79,22.79,0,0,1,.37-2.26,34,34,0,0,0,.9-5.38c0-4.21,1.21-7.72,4.36-10.46A12.07,12.07,0,0,1,13,.25C17.43.25,20.44,1.5,22.84,4Zm1.24,14.77A13.18,13.18,0,0,0,24.8,10c-.05-.21-.11-.41-.18-.62a10.57,10.57,0,0,0-2.76-4.54A12.49,12.49,0,0,0,19.7,3.19c-.3-.19-.6-.36-.92-.52a4.8,4.8,0,0,0,.08,1.09q.34,3.16.67,6.32c.08,1.17.68,1.56,1.73,1.33a2,2,0,0,1,2.25,1,2,2,0,0,1,.16,1.47.69.69,0,0,0,0,.12,2.68,2.68,0,0,1-.42.67,2,2,0,0,1-2.41.47,2.08,2.08,0,0,1-1.13-1.87,1.5,1.5,0,0,1,0-.19v0a.1.1,0,0,0,0,0,1.46,1.46,0,0,0-.37-.89,2.67,2.67,0,0,1-1.05-2c0-.48-.07-1-.12-1.44,0-.12,0-.24,0-.36-.16-1.71-.35-3.39-.51-5.12,0-.09,0-.17,0-.26v0a1.05,1.05,0,0,0-.23-.72.88.88,0,0,0-.68-.36c-.52-.08-1.05-.16-1.72-.31,0,0,0,.05,0,.08h0c.15,1.79.3,3.51.52,5.15,0,.2.23.34.48.44h0l0,0a2,2,0,0,1,1,2.26,2.11,2.11,0,0,1-1.8,1.64h-.12A2,2,0,0,1,13.3,9.93a2.15,2.15,0,0,1,.6-2.5c.15-.23.37-.47.37-.7-.15-1.72-.37-3.36-.52-5.07a.57.57,0,0,0-.3-.08c-1.3,0-1.9.09-2.13.53s-.23.93-.12,2c.23,2.42.45,4.92.68,7.33a1.43,1.43,0,0,1,0,.55c-.83.94-.76,2.18-.91,3.36a1.38,1.38,0,0,1-.16.57,2,2,0,0,1-2.17.76,2,2,0,0,1-1.5-2.34,1.65,1.65,0,0,1,.16-.51,2.31,2.31,0,0,1,1.15-1.08,2,2,0,0,1,.87-.12,1.19,1.19,0,0,0,1.35-1.33c-.22-2.86-.51-5.66-.82-8.52a.17.17,0,0,1,0-.06c0-.05,0-.07-.09-.13l-.05-.1a15,15,0,0,0-2.2,1.26,9.87,9.87,0,0,0-4.11,6,31.91,31.91,0,0,0-.45,3.82c-.3,1.79-.6,3.51-.91,5.31-.07.7-.23,1.4-.37,2.26h.09s0,.05,0,.09L4,21c.68-.08,1,.16,1.05.86.07,1.33.3,2.65.45,4A2.32,2.32,0,0,0,8.18,28c.91-.08,1.73-.16,2.64-.31,2.55-.31,3.31.23,3.83,2.89l2-.23s0-.05,0-.08h0c-.15-1.64-.3-3.2-.52-4.76-.15-.7-.83-.94-1.58-.78A2.14,2.14,0,0,1,12,23.35a1.56,1.56,0,0,1-.09-.54A2.2,2.2,0,0,1,13,21a1.88,1.88,0,0,1,2.63.62A2.73,2.73,0,0,1,16,22.85a1.22,1.22,0,0,0,0,.23.76.76,0,0,0,0,.13,1.26,1.26,0,0,0,.61,1,1.44,1.44,0,0,1,.43.37l0,0a2.39,2.39,0,0,1,.3,1v.1l0,.25c.08,1.3.25,2.56.38,3.86l0,.49c1.88-.23,3.68-.39,5.56-.62,0,0,0-.05,0-.08h0c0-.41-.07-.83-.12-1.24-.11-1.3-.24-2.59-.41-3.83l0-.51a8.74,8.74,0,0,1,0-1.51,10.39,10.39,0,0,1,.91-3C23.86,19.27,24,19,24.08,18.77Zm-1.76-5.41c-.23-.23-.37-.55-.68-.62-.15-.08-.45.31-.9.62.44.31.67.62.9.62S22.09,13.59,22.32,13.36ZM15.1,9.77c.23,0,.45-.47.68-.7-.23-.23-.45-.62-.76-.62s-.52.39-1,.7C14.5,9.53,14.79,9.85,15.1,9.77ZM14,24c.38-.55.68-.86.68-1.17A1,1,0,0,0,14,22.1c-.52-.08-.9.23-.75.78C13.3,23.27,13.59,23.5,14,24Zm-4-9.28c-.23-.23-.45-.62-.76-.7s-.6.31-1.2.62c.53.39.83.78,1.13.78S9.68,15,10,14.76Z" transform="translate(-0.25 -0.25)"/><path class="cls-2" d="M24.8,10a13.78,13.78,0,0,1-.72,8.76c-.11.25-.22.51-.34.76a9.54,9.54,0,0,0-.91,3,8.74,8.74,0,0,0,0,1.51q0,.29,0,.59c.17,1.23.3,2.46.41,3.75,0,.41.08.82.11,1.24-1.88.23-3.67.39-5.56.62,0-.14,0-.28,0-.41-.12-1.36-.26-2.61-.38-3.86l0-.33v0a1.67,1.67,0,0,0-.3-1l0,0a1.66,1.66,0,0,0-.43-.45,1.3,1.3,0,0,1-.61-.91.76.76,0,0,1,0-.13,1.78,1.78,0,0,1,0-.2V22.8a2.05,2.05,0,0,0-.38-1.25A1.91,1.91,0,0,0,13,20.93a2.18,2.18,0,0,0-1.07,1.88,1.65,1.65,0,0,0,.09.62,2,2,0,0,0,2.55,1.4c.76-.16,1.51.16,1.58.78.23,1.54.37,3.07.51,4.68l-2,.23c-.52-2.65-1.28-3.28-3.83-2.89-.91.08-1.73.23-2.64.31a2.41,2.41,0,0,1-2.7-2.18c-.16-1.33-.3-2.65-.45-4-.08-.7-.37-.94-1.05-.86l-2.24.23c.14-.82.28-1.5.36-2.18.3-1.79.6-3.59.83-5.38a31.91,31.91,0,0,1,.45-3.82,10.24,10.24,0,0,1,4.11-6,15,15,0,0,1,2.2-1.26l.05.1.09.13a.17.17,0,0,0,0,.06c.23,2.86.52,5.66.82,8.52a1.19,1.19,0,0,1-1.35,1.33,2,2,0,0,0-.87.12,2.11,2.11,0,0,0-1.15,1.08,2.47,2.47,0,0,0-.23.59,2,2,0,0,0,1.51,2.34A2,2,0,0,0,10.8,16a1.62,1.62,0,0,0,.24-.65c.15-1.17,0-2.34.9-3.36.08-.08,0-.31,0-.55-.23-2.42-.45-4.92-.67-7.33a4,4,0,0,1,0-2c.27-.37.87-.41,2.05-.45h.3c.23,1.64.37,3.36.52,5.07.08.23-.23.55-.37.7a2.16,2.16,0,0,0-.6,2.5,2,2,0,0,0,1.9,1.18h.2a2,2,0,0,0,1.8-1.64,2.06,2.06,0,0,0-1.05-2.26l-.11,0h0c-.22-.16-.48-.37-.48-.51C15.25,5,15.11,3.34,15,1.58c.67.16,1.19.23,1.72.31a1,1,0,0,1,.68.28,1.56,1.56,0,0,1,.23.72V3c0,.06,0,.12,0,.18.12,1.72.34,3.41.51,5.12,0,.12,0,.24,0,.36q.07.76.12,1.52a2.45,2.45,0,0,0,1.05,2,1.31,1.31,0,0,1,.37.81.38.38,0,0,1,0,.09,1.5,1.5,0,0,0,0,.19,2.09,2.09,0,0,0,1.13,2,2,2,0,0,0,2.41-.47,2.25,2.25,0,0,0,.42-.75.69.69,0,0,1,0-.12,1.83,1.83,0,0,0-.16-1.55,2,2,0,0,0-2.25-1c-1.05.23-1.65-.23-1.73-1.33q-.33-3.16-.67-6.32c0-.31-.08-.55-.08-1,.32.16.62.34.92.52a12.49,12.49,0,0,1,2.15,1.65,10.83,10.83,0,0,1,2.76,4.54C24.69,9.59,24.74,9.79,24.8,10ZM20.21,20.3a2,2,0,0,0,.23-2.65,2.06,2.06,0,0,0-1.5-.91l-.21,0a1.93,1.93,0,0,0-.92.22,2,2,0,0,0-1.13,2.34c.16.55.68.94,1,1.4.22.31.6.62.6,1,.15,1.25.3,2.5.37,3.75.07.44.14,1,.62.87a.5.5,0,0,0,.28,0c.23-.08.45-.62.53-.7-.15-1.48-.23-2.57-.37-3.75A1.52,1.52,0,0,1,20.21,20.3Z" transform="translate(-0.25 -0.25)"/><path class="cls-3" d="M23.36,29.59s0,.05,0,.08c-1.88.23-3.68.39-5.56.62l0-.49c0,.13,0,.27,0,.41C19.69,30,21.48,29.82,23.36,29.59Z" transform="translate(-0.25 -0.25)"/><path class="cls-3" d="M23.22,14.68a2.68,2.68,0,0,0,.42-.67,2.25,2.25,0,0,1-.42.75,2,2,0,0,1-2.41.47,2.09,2.09,0,0,1-1.13-2,2.08,2.08,0,0,0,1.13,1.87A2,2,0,0,0,23.22,14.68Z" transform="translate(-0.25 -0.25)"/><path class="cls-3" d="M21.86,4.85a10.57,10.57,0,0,1,2.76,4.54A10.83,10.83,0,0,0,21.86,4.85Z" transform="translate(-0.25 -0.25)"/><path class="cls-3" d="M23.74,19.52a10.39,10.39,0,0,0-.91,3A9.54,9.54,0,0,1,23.74,19.52Z" transform="translate(-0.25 -0.25)"/><path class="cls-4" d="M21.64,12.73c.3.08.45.39.68.62-.23.23-.45.62-.68.62s-.45-.31-.9-.62C21.18,13,21.49,12.66,21.64,12.73Z" transform="translate(-0.25 -0.25)"/><path class="cls-1" d="M20.21,17.65A1.91,1.91,0,0,1,20,20.3a1.57,1.57,0,0,0-.52,1.56c.15,1.09.23,2.26.37,3.75-.08.16-.23.62-.52.7h-.06c-.34-.05-.39-.48-.39-.87-.08-1.25-.23-2.5-.37-3.75a2.82,2.82,0,0,0-.61-1,4.67,4.67,0,0,1-1.12-1.4,2,2,0,0,1,1.12-2.34,2,2,0,0,1,.85-.22l.21,0A1.57,1.57,0,0,1,20.21,17.65ZM18.7,19.44a.62.62,0,0,0,.45-.7.88.88,0,0,0-.52-.62c-.3.08-.53.39-1,.78C18.18,19.21,18.49,19.44,18.7,19.44Z" transform="translate(-0.25 -0.25)"/><path class="cls-3" d="M19.68,13a.1.1,0,0,1,0,0v0A.38.38,0,0,0,19.68,13Z" transform="translate(-0.25 -0.25)"/><path class="cls-3" d="M19.31,12.11a1.46,1.46,0,0,1,.37.89,1.31,1.31,0,0,0-.37-.81,2.45,2.45,0,0,1-1.05-2q0-.76-.12-1.52c0,.48.09,1,.12,1.44A2.67,2.67,0,0,0,19.31,12.11Z" transform="translate(-0.25 -0.25)"/><path class="cls-1" d="M19.25,26.32c-.48.1-.55-.42-.62-.87-.08-1.25-.23-2.5-.37-3.75,0-.39-.38-.7-.6-1-.3-.47-.83-.86-1-1.4a2,2,0,0,1,1.13-2.34,1.93,1.93,0,0,1,.92-.22,2,2,0,0,0-.85.22,2,2,0,0,0-1.12,2.34,4.67,4.67,0,0,0,1.12,1.4,2.82,2.82,0,0,1,.61,1c.15,1.25.3,2.5.37,3.75C18.86,25.83,18.91,26.26,19.25,26.32Z" transform="translate(-0.25 -0.25)"/><path class="cls-5" d="M19.16,18.74a.62.62,0,0,1-.45.7c-.22,0-.52-.23-1-.55.44-.39.67-.7,1-.78A.88.88,0,0,1,19.16,18.74Z" transform="translate(-0.25 -0.25)"/><path class="cls-3" d="M17.6,3.16c0-.06,0-.12,0-.18V2.9C17.59,3,17.59,3.07,17.6,3.16Z" transform="translate(-0.25 -0.25)"/><path class="cls-3" d="M17.38,25.94l0-.25v-.08Z" transform="translate(-0.25 -0.25)"/><path class="cls-3" d="M16.07,7.19a2.06,2.06,0,0,1,1.05,2.26,2,2,0,0,1-1.8,1.64h-.08A2.11,2.11,0,0,0,17,9.46a2,2,0,0,0-1-2.26l0,0Z" transform="translate(-0.25 -0.25)"/><path class="cls-3" d="M17.35,2.17a1,1,0,0,0-.68-.28c-.52-.08-1-.16-1.72-.31,0,0,0-.05,0-.08.67.16,1.2.23,1.72.31A.88.88,0,0,1,17.35,2.17Z" transform="translate(-0.25 -0.25)"/><path class="cls-3" d="M16.6,24.13a1.66,1.66,0,0,1,.43.45,1.44,1.44,0,0,0-.43-.37,1.26,1.26,0,0,1-.61-1A1.3,1.3,0,0,0,16.6,24.13Z" transform="translate(-0.25 -0.25)"/><path class="cls-3" d="M16.67,30.29s0,.05,0,.08l-2,.23c-.52-2.65-1.28-3.2-3.83-2.89-.91.16-1.73.23-2.64.31a2.32,2.32,0,0,1-2.7-2.18c-.16-1.33-.38-2.65-.45-4-.08-.7-.37-.94-1.05-.86l-2.25.23s0-.06,0-.09L4,20.93c.68-.08,1,.16,1.05.86.15,1.33.3,2.65.45,4a2.41,2.41,0,0,0,2.7,2.18c.91-.08,1.73-.23,2.64-.31,2.55-.39,3.31.23,3.83,2.89Z" transform="translate(-0.25 -0.25)"/><path class="cls-3" d="M15.62,21.55A2.05,2.05,0,0,1,16,22.8v0a2.73,2.73,0,0,0-.38-1.22A1.88,1.88,0,0,0,13,21a2.2,2.2,0,0,0-1.07,1.8A2.18,2.18,0,0,1,13,20.93,1.91,1.91,0,0,1,15.62,21.55Z" transform="translate(-0.25 -0.25)"/><path class="cls-6" d="M15.78,9.07c-.23.23-.45.7-.68.7s-.6-.23-1.05-.62c.45-.31.75-.7,1-.7S15.55,8.83,15.78,9.07Z" transform="translate(-0.25 -0.25)"/><path class="cls-7" d="M14.65,22.88c0,.31-.3.62-.68,1.17-.37-.55-.67-.78-.75-1.17-.15-.55.23-.86.75-.78A1,1,0,0,1,14.65,22.88Z" transform="translate(-0.25 -0.25)"/><path class="cls-3" d="M11.94,11.41c0,.23.08.47,0,.55-.9,1-.75,2.18-.9,3.36a1.62,1.62,0,0,1-.24.65,1.38,1.38,0,0,0,.16-.57c.15-1.17.08-2.42.91-3.36a1.43,1.43,0,0,0,0-.55c-.23-2.42-.45-4.92-.68-7.33-.11-1.12-.13-1.72.12-2a4,4,0,0,0,0,2C11.49,6.49,11.71,9,11.94,11.41Z" transform="translate(-0.25 -0.25)"/><path class="cls-3" d="M9.74,2.61c.05.06.09.08.09.13Z" transform="translate(-0.25 -0.25)"/><path class="cls-8" d="M9.23,14.06c.3.08.53.47.76.7-.3.23-.6.62-.83.7s-.6-.39-1.13-.78C8.63,14.37,8.93,14,9.23,14.06Z" transform="translate(-0.25 -0.25)"/><path class="cls-3" d="M7.29,13.86a2.11,2.11,0,0,1,1.15-1.08A2.31,2.31,0,0,0,7.29,13.86Z" transform="translate(-0.25 -0.25)"/></g></g></svg>