<svg xmlns="http://www.w3.org/2000/svg" viewBox="0 0 34.93 40.62"><defs><style>.cls-1{fill:#2c2c2c;}.cls-2{fill:#34a464;}</style></defs><title>Asset 3</title><g id="Layer_2" data-name="Layer 2"><g id="Layer_1-2" data-name="Layer 1"><path class="cls-1" d="M35.14,27.35c.18,1.12-.23,1.55-1.38,1.47-.79-.06-1.59-.12-2.38-.25s-.93.19-1,.84c-.12,1.36-.23,2.72-.47,4.06a4.88,4.88,0,0,1-5.5,4c-1.5-.2-3-.37-4.51-.53a1.53,1.53,0,0,0-1.81,1.43,10.14,10.14,0,0,1-.25,1.56,1.25,1.25,0,0,1-1.56.94Q10.14,40.18,4,39.6c-1-.09-1.36-.49-1.26-1.45.22-2.23.35-4.46.63-6.68a10.58,10.58,0,0,0-1-6C-1,18.51-.44,10.38,5.08,5,8.33,1.83,12.24.24,18.21.25a16.14,16.14,0,0,1,9.4,4c4.17,3.54,5.75,8,5.79,13.37,0,2.32.77,4.62,1.2,6.93C34.77,25.49,35,26.41,35.14,27.35ZM33.31,27c-.21-1.1-.4-2-.55-2.87-.4-2.27-.82-4.54-1.17-6.83-.25-1.63-.21-3.33-.61-4.92C29.86,7.86,26.79,5,22.61,3.09c-.12.21-.18.27-.19.34-.38,3.66-.77,7.31-1.13,11a1.55,1.55,0,0,0,1.81,1.69A2.72,2.72,0,0,1,26,18.31a2.64,2.64,0,0,1-2,3c-1.42.35-3-.38-3.18-1.8s0-3-1.17-4.28c-.1-.12,0-.44,0-.67.31-3.13.62-6.26.95-9.39.32-3,.19-3.14-2.85-3.2a3.23,3.23,0,0,0-.44.1c-.23,2.15-.48,4.33-.66,6.51,0,.28.3.64.55.88A2.77,2.77,0,0,1,18,12.66a2.76,2.76,0,0,1-5.13-.56,2.66,2.66,0,0,1,1.44-3c.26-.16.63-.41.66-.66.27-2.13.48-4.26.72-6.55-.89.16-1.58.31-2.29.4s-1.17.54-1.24,1.41c-.27,3.06-.68,6.11-.93,9.17a3.23,3.23,0,0,1-1.36,2.59,1.6,1.6,0,0,0-.5,1.17,2.72,2.72,0,0,1-4.72,2.09,2.56,2.56,0,0,1-.38-3.05,2.72,2.72,0,0,1,3-1.3c1.38.34,2.17-.25,2.32-1.69.28-2.72.58-5.43.86-8.15,0-.35.06-.71.1-1.28a14.28,14.28,0,0,0-8,9.35A17.07,17.07,0,0,0,3.92,24.92,10.42,10.42,0,0,1,5.1,31.28c-.33,2.13-.47,4.28-.71,6.55l7.44.8c.23-2,.49-3.93.65-5.85a2.13,2.13,0,0,1,1-1.87,1.52,1.52,0,0,0,.81-1.69,2.45,2.45,0,0,1,.46-1.58,2.66,2.66,0,0,1,3.54-.79A2.7,2.7,0,0,1,19.59,30a2.76,2.76,0,0,1-3.38,1.77c-1-.25-1.93.13-2.05,1-.3,2-.47,4-.71,6.11l2.71.28c.67-3.45,1.67-4.16,5.06-3.72,1.17.15,2.34.26,3.51.37a3.11,3.11,0,0,0,3.57-2.84c.2-1.69.41-3.39.55-5.09.08-.94.53-1.25,1.43-1.12S32.19,26.89,33.31,27Zm-10-7.36c.37,0,.77-.48,1.48-1-.75-.42-1.2-.87-1.56-.81s-.69.6-1,.94C22.62,19.1,23,19.63,23.35,19.65ZM18,29.23a.79.79,0,0,0-1-1,1.45,1.45,0,0,0-.93.95c0,.36.43.78.88,1.5C17.44,30,17.86,29.64,18,29.23ZM16.85,11.6c-.65-.45-1-.9-1.32-.86s-.66.52-1,.81c.31.32.58.85.95.92S16.18,12.05,16.85,11.6ZM6.73,17.82c.27,0,.63-.41,1.22-.84-.61-.41-1-.85-1.25-.79s-.63.53-.94.83C6.08,17.3,6.37,17.75,6.73,17.82Z" transform="translate(-0.25 -0.25)"/><path class="cls-2" d="M32.76,24.14c.15.89.34,1.77.55,2.87-1.12-.12-2.08-.2-3-.33s-1.35.18-1.43,1.12c-.14,1.7-.35,3.4-.55,5.09a3.11,3.11,0,0,1-3.57,2.84c-1.17-.11-2.34-.22-3.51-.37-3.39-.44-4.39.27-5.06,3.72l-2.71-.28c.24-2.08.41-4.1.71-6.11.12-.83,1.09-1.21,2.05-1A2.76,2.76,0,0,0,19.59,30a2.7,2.7,0,0,0-1.26-3.11,2.66,2.66,0,0,0-3.54.79,2.45,2.45,0,0,0-.46,1.58,1.52,1.52,0,0,1-.81,1.69,2.13,2.13,0,0,0-1,1.87c-.16,1.92-.42,3.83-.65,5.85l-7.44-.8c.24-2.27.38-4.42.71-6.55a10.42,10.42,0,0,0-1.18-6.36A17.07,17.07,0,0,1,2.55,12.65a14.28,14.28,0,0,1,8-9.35c0,.57-.06.93-.1,1.28C10.18,7.3,9.88,10,9.6,12.73c-.15,1.44-.94,2-2.32,1.69a2.72,2.72,0,0,0-3,1.3,2.56,2.56,0,0,0,.38,3.05,2.72,2.72,0,0,0,4.72-2.09,1.6,1.6,0,0,1,.5-1.17,3.23,3.23,0,0,0,1.36-2.59c.25-3.06.66-6.11.93-9.17.07-.87.38-1.31,1.24-1.41s1.4-.24,2.29-.4c-.24,2.29-.45,4.42-.72,6.55,0,.25-.4.5-.66.66a2.66,2.66,0,0,0-1.44,3,2.76,2.76,0,0,0,5.13.56,2.77,2.77,0,0,0-.79-3.19c-.25-.24-.58-.6-.55-.88.18-2.18.43-4.36.66-6.51a3.23,3.23,0,0,1,.44-.1c3,.06,3.17.22,2.85,3.2-.33,3.13-.64,6.26-.95,9.39,0,.23-.12.55,0,.67,1.13,1.25,1,2.75,1.17,4.28s1.76,2.15,3.18,1.8a2.64,2.64,0,0,0,2-3,2.72,2.72,0,0,0-2.88-2.22,1.55,1.55,0,0,1-1.81-1.69c.36-3.66.75-7.31,1.13-11,0-.07.07-.13.19-.34C26.79,5,29.86,7.86,31,12.39c.4,1.59.36,3.29.61,4.92C31.94,19.6,32.36,21.87,32.76,24.14Zm-19.53.43a2.51,2.51,0,0,0-1.45-3,2.73,2.73,0,0,0-3.35.86,2.45,2.45,0,0,0,.34,3.39,1.89,1.89,0,0,1,.68,2c-.23,1.46-.34,2.94-.54,4.83.12.15.37.78.74.87.76.17.87-.51.93-1.11.15-1.58.26-3.18.51-4.75.07-.46.52-.87.82-1.29A8,8,0,0,0,13.23,24.57Z" transform="translate(-0.25 -0.25)"/><path class="cls-1" d="M11.78,21.57a2.51,2.51,0,0,1,1.45,3,8,8,0,0,1-1.32,1.76c-.3.42-.75.83-.82,1.29-.25,1.57-.36,3.17-.51,4.75-.06.6-.17,1.28-.93,1.11-.37-.09-.62-.72-.74-.87.2-1.89.31-3.37.54-4.83a1.89,1.89,0,0,0-.68-2,2.45,2.45,0,0,1-.34-3.39A2.73,2.73,0,0,1,11.78,21.57ZM10.6,24.81c.32.05.7-.34,1.37-.7-.63-.48-.95-.87-1.35-1-.17,0-.7.51-.69.77A1.16,1.16,0,0,0,10.6,24.81Z" transform="translate(-0.25 -0.25)"/></g></g></svg>